# xmcd
#
# Track frame offsets:
#	150
#	13997
#	29793
#	42339
#	56229
#	69070
#	84498
#	98546
#	114903
#	128979
#	142560
#	157449
#
# Disc length: 2285 seconds
#
# Revision: 0
# Processed by: cddbd v1.5.2PL0 Copyright (c) Steve Scherf et al.
# Submitted via: audiograbber 1.83.01
#
DISCID=9f08eb0c
DTITLE=Bjøro Håland - Blue sky
DYEAR=2000
DGENRE=Country
TTITLE0=Blue skies
TTITLE1=Somebody's always saying goodbye
TTITLE2=Where do I go from here
TTITLE3=Memories are made of this
TTITLE4=Where no one stands alone
TTITLE5=Sweet memories
TTITLE6=Wings of a dove
TTITLE7=Even when you win
TTITLE8=Crying in the chapel
TTITLE9=Sea of heartbreak
TTITLE10=The cowboy rides away
TTITLE11=My special prayer
EXTD=
EXTT0=
EXTT1=
EXTT2=
EXTT3=
EXTT4=
EXTT5=
EXTT6=
EXTT7=
EXTT8=
EXTT9=
EXTT10=
EXTT11=
PLAYORDER=
